<svg version="1.1" id="Layer_1" xmlns="http://www.w3.org/2000/svg" xmlns:xlink="http://www.w3.org/1999/xlink" x="0px" y="0px"
	 width="100%" viewBox="0 0 127 127" enable-background="new 0 0 127 127" xml:space="preserve">
<path fill="#000000" opacity="1.000000" stroke="none" 
	d="
M78.000000,128.000000 
	C52.000000,128.000000 26.500000,128.000000 1.000000,128.000000 
	C1.000000,85.666664 1.000000,43.333332 1.000000,1.000000 
	C43.333332,1.000000 85.666664,1.000000 128.000000,1.000000 
	C128.000000,43.333332 128.000000,85.666664 128.000000,128.000000 
	C111.500000,128.000000 95.000000,128.000000 78.000000,128.000000 
M68.300819,46.306664 
	C68.172768,46.181488 68.044716,46.056313 67.985497,45.098763 
	C68.336472,42.852119 68.579544,40.582115 69.059982,38.363510 
	C70.199242,33.102596 70.093948,32.941715 63.686558,33.384327 
	C62.248985,41.981033 60.777481,50.780659 59.290070,59.675407 
	C62.901684,59.675407 65.189903,59.277363 67.275276,59.758503 
	C71.579239,60.751507 72.943161,58.900803 73.044884,54.973480 
	C73.090279,53.221027 74.004837,51.449532 73.853638,49.746269 
	C73.725128,48.298557 72.834221,46.756813 71.843719,45.646404 
	C71.548683,45.315651 69.778580,46.300671 68.300819,46.306664 
M37.541218,63.999889 
	C34.108829,64.333191 30.572815,64.254425 27.265764,65.086105 
	C20.514484,66.783981 13.469178,68.137283 7.331620,71.205879 
	C1.817926,73.962563 1.889677,79.278984 7.204852,82.018967 
	C9.640522,83.274559 12.178686,84.331337 14.278131,85.297737 
	C13.683268,90.403900 15.654222,93.778709 19.692331,96.003914 
	C29.255068,101.273468 39.833958,102.241852 50.426437,102.979507 
	C63.521530,103.891449 76.492455,102.566452 88.989601,98.779060 
	C93.869560,97.300140 99.667816,95.235748 100.415695,87.937073 
	C106.162743,86.930717 112.260536,86.609741 117.752609,84.618294 
	C120.994682,83.442696 124.518860,80.066803 125.663414,76.873070 
	C126.961418,73.251175 123.091377,71.284882 119.692001,69.844238 
	C106.887177,64.417572 93.233498,63.697746 79.730263,63.187935 
	C66.006096,62.669785 52.224739,63.666664 37.541218,63.999889 
M90.010696,35.483517 
	C94.905640,30.184603 90.363899,23.333179 92.864586,17.588987 
	C93.072189,17.112127 91.763885,15.346655 91.004288,15.234586 
	C90.027824,15.090521 88.197578,15.776612 87.946190,16.516552 
	C86.734077,20.084230 84.000732,21.283077 80.742424,22.010881 
	C79.993340,22.178202 78.838120,22.527691 78.683022,23.039690 
	C77.350716,27.437838 75.746223,31.830387 75.134109,36.348057 
	C74.531830,40.793186 75.148369,45.389740 74.934509,49.905853 
	C74.781799,53.130447 74.140472,56.331902 73.697701,59.691479 
	C76.038864,59.984821 77.692879,60.192066 80.002892,60.481503 
	C80.002892,58.074936 79.561844,55.999149 80.091812,54.211189 
	C81.314018,50.087841 79.425301,44.954967 84.509003,41.963135 
	C86.601570,40.731621 87.851929,38.069038 90.010696,35.483517 
M88.442291,59.094494 
	C90.346672,59.954536 92.251045,60.814579 94.043152,61.623920 
	C96.981079,54.932060 98.085716,48.265041 105.690163,46.563187 
	C106.662300,46.345623 107.444359,44.707958 108.064331,43.589512 
	C110.355309,39.456596 114.192055,35.798286 112.155167,30.253504 
	C111.955856,29.710947 113.392426,28.730038 113.573921,27.850321 
	C113.924850,26.149323 113.922165,24.375366 114.066048,22.631651 
	C112.317062,22.963997 110.498108,23.099665 108.840691,23.689365 
	C107.452179,24.183388 106.237442,25.184616 104.972183,26.002153 
	C102.732468,27.449329 99.242081,28.482006 98.540657,30.482510 
	C96.916504,35.114670 91.473763,38.983383 94.801773,44.940029 
	C94.990273,45.277424 94.338730,46.083153 94.079865,46.671654 
	C92.354050,50.595051 90.628693,54.518654 88.442291,59.094494 
M33.995678,41.896015 
	C35.443932,31.724810 27.888096,26.690443 21.820805,20.903980 
	C20.905100,20.030661 18.980494,20.215204 17.009338,19.803120 
	C17.009338,24.950399 16.352867,29.568748 17.200584,33.892162 
	C17.991638,37.926582 19.433813,43.699074 22.292006,45.018650 
	C26.425598,46.927055 28.427103,49.782967 30.405355,53.027409 
	C31.956938,55.572079 32.749897,58.579311 33.906021,61.445858 
	C35.562931,61.192966 37.105453,60.957539 39.407848,60.606129 
	C38.730972,58.236965 38.160877,56.118061 37.518806,54.021191 
	C36.361313,50.241051 35.160732,46.474110 33.995678,41.896015 
M40.016769,37.481415 
	C41.678837,44.091515 43.237003,50.730942 45.087646,57.287819 
	C45.473644,58.655426 46.910740,60.698963 47.915283,60.729561 
	C50.504356,60.808430 51.542866,58.776604 50.929901,56.303204 
	C48.980289,48.436295 46.974083,40.582516 44.889633,32.750305 
	C43.840012,28.806400 41.764591,26.736328 37.366341,29.746944 
	C38.207420,31.969803 39.097900,34.323227 40.016769,37.481415 
M22.515343,55.013428 
	C20.318590,53.362236 18.236666,51.504074 15.856472,50.183521 
	C15.123963,49.777115 13.114521,50.511272 12.536890,51.324711 
	C11.997122,52.084831 12.128197,54.013699 12.755669,54.779484 
	C14.580966,57.007126 16.736458,58.983570 18.886784,60.920498 
	C21.427773,63.209320 24.124361,64.043678 26.989828,61.018192 
	C25.658846,59.180614 24.339296,57.358826 22.515343,55.013428 
M112.884766,51.666122 
	C110.458237,48.589550 108.241776,49.736111 106.447533,52.228222 
	C105.026192,54.202396 103.740738,56.372948 102.930031,58.647057 
	C102.518684,59.800934 103.289207,61.376137 103.525414,62.760864 
	C105.079094,62.346905 107.325233,62.432373 108.053276,61.422935 
	C110.033028,58.677971 111.370300,55.469627 112.884766,51.666122 
z"/>
<path fill="#808191" opacity="1.000000" stroke="none" 
	d="
M38.004822,63.999992 
	C52.224739,63.666664 66.006096,62.669785 79.730263,63.187935 
	C93.233498,63.697746 106.887177,64.417572 119.692001,69.844238 
	C123.091377,71.284882 126.961418,73.251175 125.663414,76.873070 
	C124.518860,80.066803 120.994682,83.442696 117.752609,84.618294 
	C112.260536,86.609741 106.162743,86.930717 100.415695,87.937073 
	C99.667816,95.235748 93.869560,97.300140 88.989601,98.779060 
	C76.492455,102.566452 63.521530,103.891449 50.426437,102.979507 
	C39.833958,102.241852 29.255068,101.273468 19.692331,96.003914 
	C15.654222,93.778709 13.683268,90.403900 14.278131,85.297737 
	C12.178686,84.331337 9.640522,83.274559 7.204852,82.018967 
	C1.889677,79.278984 1.817926,73.962563 7.331620,71.205879 
	C13.469178,68.137283 20.514484,66.783981 27.265764,65.086105 
	C30.572815,64.254425 34.108829,64.333191 38.004822,63.999992 
M35.821274,77.014862 
	C47.394161,76.676872 58.970139,76.004860 70.538918,76.111694 
	C79.050079,76.190292 87.547791,77.355980 96.062027,77.858955 
	C97.367874,77.936089 98.730560,77.050865 100.066956,76.610725 
	C99.969833,76.038567 99.872711,75.466408 99.775589,74.894249 
	C75.936768,72.328537 52.117996,71.812286 28.338266,75.287613 
	C28.383953,76.104095 28.429640,76.920570 28.475325,77.737053 
	C30.635201,77.516113 32.795078,77.295181 35.821274,77.014862 
M55.520081,92.999756 
	C73.996567,92.999825 84.492828,90.771629 86.777023,85.988770 
	C67.318222,91.708984 47.995216,90.910126 28.454199,87.686829 
	C36.724369,91.373985 45.353916,93.377998 55.520081,92.999756 
M64.192162,83.995598 
	C65.394707,83.861122 66.597252,83.726646 67.799805,83.592171 
	C67.815262,83.132744 67.830727,82.673309 67.846184,82.213882 
	C63.600574,79.717079 58.860416,81.525536 53.537296,80.960091 
	C56.438133,85.700073 60.283230,83.279671 64.192162,83.995598 
z"/>
<path fill="#808191" opacity="1.000000" stroke="none" 
	d="
M89.748032,35.770451 
	C87.851929,38.069038 86.601570,40.731621 84.509003,41.963135 
	C79.425301,44.954967 81.314018,50.087841 80.091812,54.211189 
	C79.561844,55.999149 80.002892,58.074936 80.002892,60.481503 
	C77.692879,60.192066 76.038864,59.984821 73.697701,59.691479 
	C74.140472,56.331902 74.781799,53.130447 74.934509,49.905853 
	C75.148369,45.389740 74.531830,40.793186 75.134109,36.348057 
	C75.746223,31.830387 77.350716,27.437838 78.683022,23.039690 
	C78.838120,22.527691 79.993340,22.178202 80.742424,22.010881 
	C84.000732,21.283077 86.734077,20.084230 87.946190,16.516552 
	C88.197578,15.776612 90.027824,15.090521 91.004288,15.234586 
	C91.763885,15.346655 93.072189,17.112127 92.864586,17.588987 
	C90.363899,23.333179 94.905640,30.184603 89.748032,35.770451 
z"/>
<path fill="#808191" opacity="1.000000" stroke="none" 
	d="
M88.672737,58.768341 
	C90.628693,54.518654 92.354050,50.595051 94.079865,46.671654 
	C94.338730,46.083153 94.990273,45.277424 94.801773,44.940029 
	C91.473763,38.983383 96.916504,35.114670 98.540657,30.482510 
	C99.242081,28.482006 102.732468,27.449329 104.972183,26.002153 
	C106.237442,25.184616 107.452179,24.183388 108.840691,23.689365 
	C110.498108,23.099665 112.317062,22.963997 114.066048,22.631651 
	C113.922165,24.375366 113.924850,26.149323 113.573921,27.850321 
	C113.392426,28.730038 111.955856,29.710947 112.155167,30.253504 
	C114.192055,35.798286 110.355309,39.456596 108.064331,43.589512 
	C107.444359,44.707958 106.662300,46.345623 105.690163,46.563187 
	C98.085716,48.265041 96.981079,54.932060 94.043152,61.623920 
	C92.251045,60.814579 90.346672,59.954536 88.672737,58.768341 
z"/>
<path fill="#808191" opacity="1.000000" stroke="none" 
	d="
M33.986916,42.298836 
	C35.160732,46.474110 36.361313,50.241051 37.518806,54.021191 
	C38.160877,56.118061 38.730972,58.236965 39.407848,60.606129 
	C37.105453,60.957539 35.562931,61.192966 33.906021,61.445858 
	C32.749897,58.579311 31.956938,55.572079 30.405355,53.027409 
	C28.427103,49.782967 26.425598,46.927055 22.292006,45.018650 
	C19.433813,43.699074 17.991638,37.926582 17.200584,33.892162 
	C16.352867,29.568748 17.009338,24.950399 17.009338,19.803120 
	C18.980494,20.215204 20.905100,20.030661 21.820805,20.903980 
	C27.888096,26.690443 35.443932,31.724810 33.986916,42.298836 
z"/>
<path fill="#808191" opacity="1.000000" stroke="none" 
	d="
M68.684334,46.682819 
	C69.778580,46.300671 71.548683,45.315651 71.843719,45.646404 
	C72.834221,46.756813 73.725128,48.298557 73.853638,49.746269 
	C74.004837,51.449532 73.090279,53.221027 73.044884,54.973480 
	C72.943161,58.900803 71.579239,60.751507 67.275276,59.758503 
	C65.189903,59.277363 62.901684,59.675407 59.290070,59.675407 
	C60.777481,50.780659 62.248985,41.981033 63.686558,33.384327 
	C70.093948,32.941715 70.199242,33.102596 69.059982,38.363510 
	C68.579544,40.582115 68.336472,42.852119 67.622192,45.738739 
	C66.733940,49.824196 66.208984,53.269676 65.684036,56.715153 
	C65.922516,56.748665 66.161003,56.782181 66.399490,56.815693 
	C67.161110,53.438068 67.922722,50.060444 68.684334,46.682819 
z"/>
<path fill="#808191" opacity="1.000000" stroke="none" 
	d="
M40.002575,37.079033 
	C39.097900,34.323227 38.207420,31.969803 37.366341,29.746944 
	C41.764591,26.736328 43.840012,28.806400 44.889633,32.750305 
	C46.974083,40.582516 48.980289,48.436295 50.929901,56.303204 
	C51.542866,58.776604 50.504356,60.808430 47.915283,60.729561 
	C46.910740,60.698963 45.473644,58.655426 45.087646,57.287819 
	C43.237003,50.730942 41.678837,44.091515 40.002575,37.079033 
z"/>
<path fill="#808191" opacity="1.000000" stroke="none" 
	d="
M22.767544,55.275230 
	C24.339296,57.358826 25.658846,59.180614 26.989828,61.018192 
	C24.124361,64.043678 21.427773,63.209320 18.886784,60.920498 
	C16.736458,58.983570 14.580966,57.007126 12.755669,54.779484 
	C12.128197,54.013699 11.997122,52.084831 12.536890,51.324711 
	C13.114521,50.511272 15.123963,49.777115 15.856472,50.183521 
	C18.236666,51.504074 20.318590,53.362236 22.767544,55.275230 
z"/>
<path fill="#808191" opacity="1.000000" stroke="none" 
	d="
M112.923492,52.055534 
	C111.370300,55.469627 110.033028,58.677971 108.053276,61.422935 
	C107.325233,62.432373 105.079094,62.346905 103.525414,62.760864 
	C103.289207,61.376137 102.518684,59.800934 102.930031,58.647057 
	C103.740738,56.372948 105.026192,54.202396 106.447533,52.228222 
	C108.241776,49.736111 110.458237,48.589550 112.923492,52.055534 
z"/>
<path fill="#000000" opacity="1.000000" stroke="none" 
	d="
M35.388115,77.044556 
	C32.795078,77.295181 30.635201,77.516113 28.475325,77.737053 
	C28.429640,76.920570 28.383953,76.104095 28.338266,75.287613 
	C52.117996,71.812286 75.936768,72.328537 99.775589,74.894249 
	C99.872711,75.466408 99.969833,76.038567 100.066956,76.610725 
	C98.730560,77.050865 97.367874,77.936089 96.062027,77.858955 
	C87.547791,77.355980 79.050079,76.190292 70.538918,76.111694 
	C58.970139,76.004860 47.394161,76.676872 35.388115,77.044556 
z"/>
<path fill="#000000" opacity="1.000000" stroke="none" 
	d="
M55.027168,92.999756 
	C45.353916,93.377998 36.724369,91.373985 28.454199,87.686829 
	C47.995216,90.910126 67.318222,91.708984 86.777023,85.988770 
	C84.492828,90.771629 73.996567,92.999825 55.027168,92.999756 
z"/>
<path fill="#000000" opacity="1.000000" stroke="none" 
	d="
M63.744453,83.995743 
	C60.283230,83.279671 56.438133,85.700073 53.537296,80.960091 
	C58.860416,81.525536 63.600574,79.717079 67.846184,82.213882 
	C67.830727,82.673309 67.815262,83.132744 67.799805,83.592171 
	C66.597252,83.726646 65.394707,83.861122 63.744453,83.995743 
z"/>
<path fill="#000000" opacity="1.000000" stroke="none" 
	d="
M68.492577,46.494743 
	C67.922722,50.060444 67.161110,53.438068 66.399490,56.815693 
	C66.161003,56.782181 65.922516,56.748665 65.684036,56.715153 
	C66.208984,53.269676 66.733940,49.824196 67.587784,46.154930 
	C68.044716,46.056313 68.172768,46.181488 68.492577,46.494743 
z"/>
</svg>